PathFileType	4	(X/Y/Z)	Kaydara	
DataRate	CameraRate	NumFrames	NumMarkers	Units	OrigDataRate	OrigDataStartFrame	OrigNumFrames	
60.00	60.00	4	74	mm	60.00	1538	181	
Frame#	Time	Z_lasi			Z_rasi			Z_rpsi			Z_lpsi			Z_fneck			Z_bneck			Z_fhead			Z_rhead			Z_lhead			Z_rshld			Z_relbtop			Z_relbext			Z_relblow			Z_rwrext			Z_rwrtop			Z_rwrlow			Z_lshld			Z_lelbext			Z_lelblow			Z_lelbtop			Z_lwrext			Z_lwrtop			Z_lwrlow			Z_rtopleg			Z_ltopleg			Z_rkneefr			Z_rkneebk			Z_rkneeis			Z_lkneefr			Z_lknssbk			Z_lkneeis			Z_rankfr			Z_rankis			Z_rankbk			Z_lankfr			Z_lankbk			Z_lankis			A_lasi			A_rasi			A_rpsi			A_lpsi			A_fneck			A_bneck			A_fhead			A_rhead			A_lhead			A_rshld			A_relbtop			A_relbext			A_relblow			A_rwrext			A_rwrtop			A_rwrlow			A_lshld			A_lelbext			A_lelblow			A_lelbtop			A_lwrext			A_lwrtop			A_lwrlow			A_rtopleg			A_ltopleg			A_rkneefr			A_rkneebk			A_rkneeis			A_lkneefr			A_lknssbk			A_lkneeis			A_rankfr			A_rankis			A_rankbk			A_lankfr			A_lankbk			A_lankis			
		X1	Y1	Z1	X2	Y2	Z2	X3	Y3	Z3	X4	Y4	Z4	X5	Y5	Z5	X6	Y6	Z6	X7	Y7	Z7	X8	Y8	Z8	X9	Y9	Z9	X10	Y10	Z10	X11	Y11	Z11	X12	Y12	Z12	X13	Y13	Z13	X14	Y14	Z14	X15	Y15	Z15	X16	Y16	Z16	X17	Y17	Z17	X18	Y18	Z18	X19	Y19	Z19	X20	Y20	Z20	X21	Y21	Z21	X22	Y22	Z22	X23	Y23	Z23	X24	Y24	Z24	X25	Y25	Z25	X26	Y26	Z26	X27	Y27	Z27	X28	Y28	Z28	X29	Y29	Z29	X30	Y30	Z30	X31	Y31	Z31	X32	Y32	Z32	X33	Y33	Z33	X34	Y34	Z34	X35	Y35	Z35	X36	Y36	Z36	X37	Y37	Z37	X38	Y38	Z38	X39	Y39	Z39	X40	Y40	Z40	X41	Y41	Z41	X42	Y42	Z42	X43	Y43	Z43	X44	Y44	Z44	X45	Y45	Z45	X46	Y46	Z46	X47	Y47	Z47	X48	Y48	Z48	X49	Y49	Z49	X50	Y50	Z50	X51	Y51	Z51	X52	Y52	Z52	X53	Y53	Z53	X54	Y54	Z54	X55	Y55	Z55	X56	Y56	Z56	X57	Y57	Z57	X58	Y58	Z58	X59	Y59	Z59	X60	Y60	Z60	X61	Y61	Z61	X62	Y62	Z62	X63	Y63	Z63	X64	Y64	Z64	X65	Y65	Z65	X66	Y66	Z66	X67	Y67	Z67	X68	Y68	Z68	X69	Y69	Z69	X70	Y70	Z70	X71	Y71	Z71	X72	Y72	Z72	X73	Y73	Z73	X74	Y74	Z74	

68	25.617	-268.73713	1064.63257	671.84647	-301.67400	1079.31335	466.26488	-119.03601	1111.28220	400.03529	-76.06760	1094.84985	642.96753	-254.34183	1448.66776	564.21959	-144.92612	1497.47681	605.41862	-260.18200	1682.57706	515.98553	-109.95177	1625.10040	564.98657	-213.94146	1626.65924	669.92744	-181.46206	1440.80948	374.86649	-140.99943	1121.93336	288.47403	-121.01813	1103.39989	343.88123	-211.09324	1131.22704	320.22331	-238.63811	895.21835	276.01583	-273.41167	906.87149	303.50555	-252.27434	899.69795	340.53505	-165.72968	1423.06564	772.48367	-143.57076	1102.71629	775.34416	-211.05587	1125.89760	831.31561	-143.31528	1121.22513	844.72313	-281.03558	869.87930	815.66689	-273.92954	863.13400	862.10518	-227.07281	857.53983	858.50868	-164.39848	918.48801	346.26587	-177.42022	888.54828	713.07686	-249.99695	411.33736	368.17406	-177.79972	449.60999	328.89687	-198.07209	426.69273	449.94846	-204.70253	441.32385	667.76260	-97.63832	469.97627	662.16003	-187.63901	437.57504	576.99841	-167.24016	178.57655	350.94730	-151.33804	175.51291	415.53082	-90.10637	183.33977	353.46565	-139.04081	160.16041	670.76431	-79.01891	164.10461	616.58882	-156.47032	169.27525	598.90511	-952.07436	1027.93541	492.00241	-953.15140	1036.06186	651.15456	-1116.81068	1040.71609	654.12460	-1075.60165	1042.16492	475.03185	-1021.04271	1382.81616	577.77794	-1157.06833	1405.47394	544.27692	-978.96797	1593.50388	613.94844	-1143.18039	1550.92499	646.33820	-1091.88927	1562.41333	491.42803	-1119.69864	1351.37253	741.23634	-1105.41565	1058.43887	777.28943	-1162.30835	1051.37794	746.14563	-1092.90298	1047.10121	722.16240	-1086.96373	812.48856	806.60385	-1043.27652	822.28806	801.85616	-1042.34268	820.75516	763.61336	-1036.39061	1353.75763	391.68762	-1065.53062	1044.00391	367.19322	-1002.27226	1050.23209	402.64668	-1018.68446	1049.46861	350.53379	-988.27133	822.11685	391.82049	-981.59370	823.85818	351.60393	-940.69458	831.28906	370.54493	-1074.38110	877.14615	740.49294	-1009.56055	889.98848	406.38382	-1028.16284	451.71120	657.20886	-1138.82339	488.23727	692.96463	-1109.34959	486.56948	576.30310	-1005.55168	461.83681	519.09840	-1085.62424	481.46812	419.72004	-1112.73216	479.86794	543.27301	-1103.05214	167.27240	675.64484	-1130.54459	163.84212	607.40276	-1184.23050	155.70236	672.67349	-1064.32800	166.76056	459.66324	-1124.77928	170.23010	423.16727	-1124.88892	174.03376	512.76318 
69	25.633	-269.60917	1065.10887	666.82358	-302.18355	1079.69955	460.93311	-119.42529	1111.62956	395.24422	-77.03322	1095.03227	638.20354	-254.49554	1449.05823	558.66112	-144.92742	1497.87064	599.37756	-261.30552	1682.99179	511.24466	-110.31821	1625.55847	557.93365	-212.69163	1626.89178	664.41101	-181.69891	1440.78934	369.06231	-141.67641	1121.84181	283.01790	-121.87265	1103.23051	338.58379	-211.66922	1131.23886	314.85083	-239.47975	895.20103	270.82197	-274.24141	906.93657	298.35220	-253.17406	899.84695	335.27863	-165.68907	1423.80981	766.66389	-143.93251	1103.47229	769.33441	-210.99354	1126.84692	825.70076	-143.47588	1121.95023	838.82416	-282.14413	871.08093	809.73160	-274.79120	864.23248	856.16875	-227.96772	858.34427	852.40906	-164.99716	918.79730	341.25908	-178.21550	888.76198	708.05679	-250.36896	411.45527	365.65140	-178.41040	449.37908	325.52914	-197.82623	427.37003	446.92577	-205.35984	441.59679	665.37254	-97.92068	470.30617	659.23607	-188.14287	437.34535	574.46178	-167.53761	178.53439	349.63856	-151.33617	175.89287	414.23409	-90.31074	183.33466	351.70273	-138.95920	160.54138	669.89265	-79.48626	163.95922	616.07365	-156.67562	169.19350	598.01064	-952.27936	1027.93480	492.01340	-953.43987	1036.23550	651.19484	-1117.36221	1040.63705	654.00742	-1075.79971	1042.06596	474.96155	-1021.50291	1382.72278	577.50809	-1157.53975	1405.59891	544.05979	-979.00597	1593.34015	613.39836	-1143.03215	1551.12198	646.33827	-1092.30919	1562.33307	491.16879	-1120.27115	1351.27106	741.00571	-1106.33965	1058.53661	777.10350	-1163.16475	1051.44753	746.01830	-1094.55338	1047.09671	720.96016	-1088.04131	812.67853	806.59729	-1044.18785	822.37640	801.96938	-1043.75206	820.79193	763.03871	-1036.52733	1353.65707	391.54308	-1065.07393	1043.79906	367.22118	-1001.87172	1050.24567	402.86011	-1018.18718	1049.32076	350.70366	-986.77773	822.24426	393.22666	-980.29335	823.85567	352.47467	-939.43436	831.51421	371.59199	-1074.97108	876.98708	740.48698	-1009.49028	889.93401	406.25668	-1028.34114	451.71871	657.23770	-1139.03069	488.19023	692.90344	-1109.42589	486.56326	576.25729	-1005.62721	461.81488	519.27238	-1085.56458	481.45218	419.78867	-1112.72980	479.87694	543.32752	-1103.13698	167.22523	675.57152	-1130.59227	163.79267	607.37156	-1184.27650	155.64507	672.58934	-1064.33662	166.72752	459.71832	-1124.75372	170.20853	423.22357	-1124.90685	174.03105	512.83791 
70	25.650	-270.10952	1065.37506	661.14258	-302.63739	1079.99741	455.59998	-119.71632	1111.92719	390.13290	-77.96819	1095.13550	633.32512	-254.59440	1449.42307	552.99313	-144.85756	1498.16086	593.21293	-262.37900	1683.26019	506.35296	-110.55666	1626.05759	550.72491	-211.39608	1627.03186	658.73199	-181.85808	1440.76538	363.25611	-142.13779	1121.65710	277.37667	-122.34778	1103.04596	333.01270	-212.04712	1131.19583	309.05502	-240.23750	895.21866	265.38260	-275.09201	907.02553	292.80910	-254.04245	899.97803	329.98356	-166.42071	1424.48013	761.00433	-144.18690	1104.26292	763.28506	-211.16989	1127.51907	819.87648	-143.56443	1122.64236	832.79213	-283.18810	872.27242	803.58002	-275.54216	865.26642	849.90784	-229.12003	859.13551	845.66437	-165.70538	919.11880	336.17085	-178.85900	888.95729	702.94533	-250.73685	411.40018	362.96391	-178.72131	449.11472	322.36664	-198.56619	428.04504	444.28474	-205.60612	442.01843	662.86186	-98.27219	470.57056	656.29494	-188.58164	437.11327	571.91456	-167.70182	178.43401	348.33332	-151.36927	176.29854	413.02444	-90.55743	183.28506	350.40920	-139.12541	161.03193	669.18343	-79.93895	163.81308	615.55756	-156.61734	169.02199	597.15965	-952.31544	1027.88567	491.66821	-953.95439	1036.36681	651.27602	-1117.99263	1040.66658	654.00871	-1076.04256	1041.93848	474.86671	-1022.06589	1382.64633	577.26681	-1157.99133	1405.74707	543.92025	-978.93341	1593.26309	612.58762	-1142.88742	1551.27670	646.35582	-1092.70439	1562.22336	491.01067	-1121.08688	1351.46881	740.76874	-1107.07428	1058.62877	776.99875	-1163.92303	1051.49757	745.89714	-1095.37033	1047.14203	721.04111	-1088.84277	812.63176	806.53503	-1045.00061	822.45964	801.98692	-1043.91380	820.89111	763.37738	-1036.78566	1353.59146	391.36669	-1064.69978	1043.54332	367.27020	-1001.69754	1050.25131	403.15758	-1017.75276	1049.17572	350.93426	-985.93376	822.30362	393.76598	-978.94264	823.85918	353.52406	-938.29498	831.80679	372.75745	-1075.30342	877.03369	740.58571	-1009.28360	889.50523	406.26514	-1028.49716	451.73325	657.31934	-1139.21608	488.17036	692.88162	-1109.50523	486.55937	576.18198	-1005.68939	461.82381	519.38152	-1085.55763	481.45054	419.84364	-1112.75505	479.85619	543.38673	-1103.20923	167.23391	675.44006	-1130.60669	163.78180	607.29549	-1184.35097	155.59310	672.51144	-1064.35249	166.71810	459.74911	-1124.75159	170.20365	423.22701	-1124.90906	174.00871	512.85416 
71	25.667	-270.65014	1065.50217	655.70175	-303.03370	1080.15640	450.21461	-120.10314	1112.10220	384.94938	-78.92905	1095.13451	628.42133	-254.83471	1449.62524	547.24377	-144.97717	1498.37692	587.13921	-263.39035	1683.47260	501.40282	-110.95491	1626.35284	543.30433	-210.14862	1627.23831	652.94754	-181.87899	1440.56137	357.38583	-142.22247	1121.53152	271.59235	-122.74010	1102.83165	327.29637	-212.35962	1131.15685	303.13986	-241.04437	895.18997	259.84976	-275.85199	907.14569	287.32260	-254.91068	900.10773	324.36726	-166.85003	1425.26398	755.08621	-144.47835	1105.03662	757.27615	-211.29705	1128.15514	814.01573	-143.51209	1123.29758	826.74088	-284.15493	873.35800	797.07993	-276.16367	866.03752	843.34946	-229.95499	859.83971	838.90701	-166.35975	919.21219	330.88387	-179.35299	889.12842	697.69150	-251.01770	411.37566	360.08366	-178.85033	448.70171	319.69131	-198.83183	428.31787	441.42239	-205.80690	442.19082	660.36705	-98.31056	470.76450	653.21037	-188.93911	436.86394	569.30176	-167.88523	178.24043	347.23530	-151.64302	176.43742	411.95999	-90.49739	183.16196	349.36001	-139.02334	161.29400	668.39485	-79.82562	163.90522	614.51469	-156.68872	169.19949	596.72424	-952.83394	1027.93007	492.20814	-954.52034	1036.62827	651.38763	-1118.34801	1040.64209	653.83163	-1076.35498	1041.83067	474.77978	-1022.57454	1382.55920	577.06856	-1158.56674	1405.83832	543.78395	-978.86490	1593.26385	611.96644	-1142.73338	1551.38718	646.41068	-1093.15880	1562.10419	490.83549	-1121.87729	1351.49643	740.64629	-1107.88780	1058.61534	776.92703	-1164.62791	1051.52390	745.83176	-1096.46225	1047.13036	720.25780	-1090.34912	813.04008	807.03964	-1045.74928	822.51518	802.07481	-1042.07069	821.41228	766.17661	-1037.18323	1353.49899	391.20369	-1064.39552	1043.24631	367.40871	-1001.72325	1050.26451	403.48919	-1017.43729	1049.02672	351.16337	-984.13231	821.96487	396.04000	-977.57904	823.90587	354.61117	-937.06619	832.08260	374.01340	-1075.45448	877.07420	740.69588	-1009.51286	889.55101	406.34113	-1028.35106	451.75541	657.14142	-1139.35501	488.14980	692.84302	-1109.64272	486.55159	576.20605	-1005.79659	461.81866	519.49413	-1085.60326	481.46679	419.88323	-1112.77321	479.87526	543.40900	-1103.27538	167.18342	675.50377	-1130.64331	163.77024	607.29088	-1184.41734	155.53207	672.44339	-1064.36913	166.72005	459.77051	-1124.79416	170.18894	423.26637	-1124.93507	173.98705	512.85542 
